<svg width="586" height="316" viewBox="0 0 586 316" fill="none" xmlns="http://www.w3.org/2000/svg">
    <rect y="153" width="243" height="153" fill="#7785CA" />
    <path
        d="M21.29 192.97H49.255C58.5483 193.027 65.49 195.322 70.08 199.855C74.67 204.388 77.2767 211.472 77.9 221.105C77.9567 221.955 77.985 222.805 77.985 223.655C78.0417 224.505 78.0417 225.383 77.985 226.29C77.8717 230.483 77.135 234.592 75.775 238.615C74.415 242.582 72.035 245.953 68.635 248.73C65.8583 250.997 62.855 252.442 59.625 253.065C56.4517 253.688 53.1083 254 49.595 254H21.29V192.97ZM49 203.595H34.125V243.375H49C49.1133 243.432 49.2267 243.46 49.34 243.46C49.51 243.46 49.6517 243.46 49.765 243.46C51.635 243.46 53.4483 243.29 55.205 242.95C57.0183 242.553 58.605 241.59 59.965 240.06C61.325 238.473 62.26 236.688 62.77 234.705C63.3367 232.722 63.705 230.71 63.875 228.67C63.9317 227.82 63.96 226.97 63.96 226.12C63.96 225.27 63.96 224.42 63.96 223.57C63.96 222.72 63.96 221.842 63.96 220.935C63.96 219.972 63.9033 219.037 63.79 218.13C63.6767 216.147 63.3367 214.192 62.77 212.265C62.26 210.338 61.325 208.638 59.965 207.165C58.605 205.635 57.0183 204.672 55.205 204.275C53.4483 203.878 51.635 203.68 49.765 203.68C49.6517 203.68 49.51 203.68 49.34 203.68C49.2267 203.68 49.1133 203.68 49 203.68V203.595ZM123.586 248.645C121.433 250.798 118.826 252.385 115.766 253.405C112.763 254.425 109.646 254.935 106.416 254.935C103.186 254.935 100.07 254.425 97.0662 253.405C94.0628 252.385 91.4845 250.827 89.3312 248.73C87.1212 246.577 85.4495 243.998 84.3162 240.995C83.2395 237.992 82.7012 234.903 82.7012 231.73C82.7012 228.557 83.2395 225.468 84.3162 222.465C85.4495 219.462 87.1212 216.883 89.3312 214.73C91.4845 212.633 94.0628 211.075 97.0662 210.055C100.126 208.978 103.271 208.44 106.501 208.44C109.675 208.44 112.763 208.978 115.766 210.055C118.826 211.075 121.433 212.633 123.586 214.73C125.796 216.883 127.44 219.462 128.516 222.465C129.65 225.468 130.216 228.557 130.216 231.73C130.216 234.903 129.65 237.992 128.516 240.995C127.44 243.998 125.796 246.577 123.586 248.73V248.645ZM102.421 244.48C102.818 244.65 103.186 244.792 103.526 244.905C103.923 245.018 104.291 245.103 104.631 245.16C107.351 245.557 109.901 245.047 112.281 243.63C114.661 242.213 116.248 240.145 117.041 237.425C117.325 236.462 117.523 235.442 117.636 234.365C117.806 233.232 117.891 232.098 117.891 230.965C117.778 228.472 117.183 226.12 116.106 223.91C115.03 221.643 113.301 220 110.921 218.98C110.411 218.753 109.873 218.583 109.306 218.47C108.74 218.357 108.201 218.272 107.691 218.215C105.085 217.988 102.648 218.583 100.381 220C98.1145 221.417 96.5845 223.4 95.7912 225.95C95.5078 226.913 95.2812 227.933 95.1112 229.01C94.9978 230.03 94.9695 231.05 95.0262 232.07C95.0828 234.733 95.6778 237.255 96.8112 239.635C98.0012 241.958 99.8712 243.602 102.421 244.565V244.48ZM161.868 244.395H174.448V254H158.383C155.323 254 152.32 253.688 149.373 253.065C146.483 252.385 143.876 250.94 141.553 248.73C139.626 246.86 138.125 244.678 137.048 242.185C135.971 239.635 135.291 237.028 135.008 234.365C135.008 233.968 134.98 233.572 134.923 233.175C134.923 232.722 134.923 232.297 134.923 231.9C134.923 231.39 134.923 230.88 134.923 230.37C134.98 229.86 135.036 229.35 135.093 228.84C135.32 226.233 135.971 223.683 137.048 221.19C138.125 218.697 139.626 216.515 141.553 214.645C143.876 212.435 146.483 210.99 149.373 210.31C152.32 209.63 155.323 209.29 158.383 209.29L174.448 209.205V218.895H161.868C161.698 218.952 161.5 218.98 161.273 218.98C161.103 218.98 160.933 218.98 160.763 218.98C160.423 218.98 160.083 218.98 159.743 218.98C159.46 218.98 159.176 218.98 158.893 218.98C157.76 218.98 156.655 219.065 155.578 219.235C154.501 219.405 153.481 219.773 152.518 220.34C150.421 221.587 149.005 223.258 148.268 225.355C147.588 227.452 147.248 229.633 147.248 231.9C147.305 234.11 147.701 236.235 148.438 238.275C149.175 240.258 150.535 241.845 152.518 243.035C153.481 243.602 154.501 243.97 155.578 244.14C156.655 244.31 157.76 244.423 158.893 244.48C159.233 244.48 159.573 244.48 159.913 244.48C160.31 244.48 160.678 244.48 161.018 244.48C161.188 244.48 161.33 244.48 161.443 244.48C161.613 244.48 161.755 244.48 161.868 244.48V244.395ZM181.617 244.65H206.522C206.636 244.707 206.749 244.735 206.862 244.735C206.976 244.735 207.089 244.735 207.202 244.735C208.619 244.678 209.922 244.367 211.112 243.8C212.302 243.233 212.897 242.072 212.897 240.315C212.897 238.672 212.331 237.567 211.197 237C210.064 236.433 208.846 236.093 207.542 235.98C207.372 235.98 207.202 235.98 207.032 235.98C206.862 235.98 206.692 235.98 206.522 235.98L196.322 235.895C191.562 235.952 187.794 235.3 185.017 233.94C182.297 232.58 180.909 229.123 180.852 223.57C180.796 218.357 182.212 214.673 185.102 212.52C187.992 210.367 191.846 209.29 196.662 209.29L222.077 209.205V218.555H201.167C200.997 218.612 200.827 218.64 200.657 218.64C200.544 218.64 200.402 218.64 200.232 218.64C199.836 218.64 199.439 218.64 199.042 218.64C198.702 218.64 198.306 218.64 197.852 218.64C196.832 218.697 195.841 218.923 194.877 219.32C193.971 219.717 193.376 220.453 193.092 221.53C192.639 223.513 193.036 224.873 194.282 225.61C195.529 226.347 196.974 226.715 198.617 226.715L209.327 226.63C213.521 226.687 217.034 227.678 219.867 229.605C222.701 231.475 224.202 234.733 224.372 239.38C224.372 239.437 224.372 239.493 224.372 239.55C224.372 239.55 224.372 239.578 224.372 239.635C224.429 243.262 223.381 246.577 221.227 249.58C219.131 252.527 216.099 254 212.132 254H181.617V244.65Z"
        fill="white" />
    <path d="M0 55C0 24.6243 24.6243 0 55 0H586V153H0V55Z" fill="#F3F4F6" />
    <path
        d="M155.168 50.48H107.424C103.243 50.5653 99.7013 51.4613 96.8 53.168C93.984 54.7893 92.576 57.9467 92.576 62.64C92.576 66.224 93.7707 68.784 96.16 70.32C98.6347 71.856 101.493 72.624 104.736 72.624L130.336 72.496C131.275 72.5813 132.256 72.624 133.28 72.624C134.304 72.624 135.328 72.6667 136.352 72.752C139.339 72.9227 142.283 73.4347 145.184 74.288C148.085 75.056 150.645 76.5067 152.864 78.64C154.912 80.5173 156.448 82.7787 157.472 85.424C158.496 88.0693 159.136 90.8 159.392 93.616C159.477 94.4693 159.52 95.3227 159.52 96.176C159.605 96.944 159.648 97.7547 159.648 98.608C159.477 109.275 156.533 116.528 150.816 120.368C145.099 124.123 137.333 126 127.52 126H76.064V109.616H124.448C128.715 109.701 132.384 109.019 135.456 107.568C138.613 106.117 139.893 102.832 139.296 97.712C138.869 93.7013 137.376 91.2267 134.816 90.288C132.256 89.3493 129.227 88.8373 125.728 88.752L102.944 88.624C93.472 88.7093 85.9627 86.832 80.416 82.992C74.9547 79.0667 72.2667 72.0267 72.352 61.872C72.5227 51.2053 75.4667 43.952 81.184 40.112C86.9867 36.1867 94.7947 34.224 104.608 34.224L155.168 34.096V50.48ZM194.193 50.224H164.625V34.224H243.985V50.224H214.161V126H194.193V50.224ZM269.987 66.224C269.39 68.528 268.963 70.8747 268.707 73.264C268.451 75.568 268.323 77.872 268.323 80.176C268.323 82.5653 268.451 84.9547 268.707 87.344C269.048 89.648 269.475 91.9093 269.987 94.128C270.926 98.0533 272.462 101.467 274.595 104.368C276.814 107.269 279.886 109.403 283.811 110.768C285.262 111.28 286.798 111.664 288.419 111.92C290.04 112.176 291.662 112.304 293.283 112.304C294.904 112.304 296.526 112.176 298.147 111.92C299.768 111.664 301.304 111.28 302.755 110.768C306.68 109.403 309.752 107.269 311.971 104.368C314.19 101.467 315.726 98.0533 316.579 94.128C317.091 91.9093 317.475 89.648 317.731 87.344C318.072 84.9547 318.243 82.5653 318.243 80.176C318.243 77.872 318.072 75.568 317.731 73.264C317.475 70.8747 317.091 68.5707 316.579 66.352C315.726 62.4267 314.19 59.0133 311.971 56.112C309.752 53.1253 306.68 50.992 302.755 49.712C301.304 49.2 299.768 48.816 298.147 48.56C296.526 48.304 294.904 48.176 293.283 48.176C291.662 48.176 290.04 48.304 288.419 48.56C286.798 48.816 285.262 49.2 283.811 49.712C279.886 51.0773 276.856 53.2107 274.723 56.112C272.59 59.0133 271.011 62.4267 269.987 66.352V66.224ZM250.019 59.696C252.238 52.9547 255.48 47.4933 259.747 43.312C264.099 39.0453 269.774 36.016 276.771 34.224C279.331 33.6267 281.976 33.1573 284.707 32.816C287.438 32.4747 290.168 32.304 292.899 32.304C295.8 32.2187 298.744 32.3467 301.731 32.688C304.718 33.0293 307.576 33.584 310.307 34.352C317.134 36.0587 322.723 39.0453 327.075 43.312C331.427 47.5787 334.627 53.0827 336.675 59.824C337.528 62.896 338.168 66.1387 338.595 69.552C339.107 72.9653 339.363 76.3787 339.363 79.792C339.363 83.4613 339.15 87.0453 338.723 90.544C338.296 94.0427 337.614 97.3707 336.675 100.528C334.627 107.44 331.384 113.029 326.947 117.296C322.51 121.477 316.792 124.379 309.795 126C307.064 126.683 304.248 127.152 301.347 127.408C298.446 127.749 295.502 127.92 292.515 127.92C289.87 127.92 287.224 127.749 284.579 127.408C281.934 127.067 279.331 126.597 276.771 126C269.859 124.379 264.184 121.477 259.747 117.296C255.31 113.029 252.067 107.44 250.019 100.528C249.166 97.5413 248.483 94.2987 247.971 90.8C247.544 87.3013 247.331 83.76 247.331 80.176C247.331 76.592 247.544 73.0507 247.971 69.552C248.398 65.968 249.08 62.7253 250.019 59.824V59.696ZM352.347 34.096H399.963C400.902 34.1813 401.798 34.224 402.651 34.224C403.59 34.224 404.528 34.2667 405.467 34.352C408.966 34.5227 412.379 35.0773 415.707 36.016C419.12 36.9547 422.107 38.704 424.667 41.264C426.971 43.4827 428.678 46.0853 429.787 49.072C430.982 52.0587 431.707 55.1307 431.963 58.288C431.963 58.8853 431.963 59.4827 431.963 60.08C432.048 60.6773 432.091 61.2747 432.091 61.872C432.176 68.272 430.683 73.8187 427.611 78.512C424.624 83.12 419.931 86.192 413.531 87.728L436.443 126H414.683L394.459 89.904H371.675V126H352.347V34.096ZM395.355 50.48H371.675V73.648H395.355C395.526 73.7333 395.696 73.776 395.867 73.776C396.038 73.776 396.208 73.776 396.379 73.776C400.475 73.776 404.187 73.1787 407.515 71.984C410.928 70.704 412.592 67.4187 412.507 62.128C412.507 56.6667 410.715 53.3813 407.131 52.272C403.632 51.1627 399.707 50.608 395.355 50.608V50.48ZM486.235 50.096C479.152 50.1813 473.862 52.1013 470.363 55.856C466.864 59.5253 464.902 64.7733 464.475 71.6L517.979 71.472V87.472H464.347C464.347 90.7147 464.688 93.8293 465.371 96.816C466.139 99.8027 467.632 102.533 469.851 105.008C471.814 107.312 474.118 108.763 476.763 109.36C479.494 109.872 482.267 110.128 485.083 110.128C485.254 110.128 485.424 110.128 485.595 110.128C485.851 110.128 486.064 110.128 486.235 110.128L517.979 110V126H485.339C480.134 126 475.099 125.531 470.235 124.592C465.456 123.653 460.934 121.477 456.667 118.064C451.547 113.883 447.963 108.805 445.915 102.832C443.867 96.7733 442.758 90.5867 442.587 84.272C442.502 82.9067 442.459 81.584 442.459 80.304C442.544 79.024 442.63 77.744 442.715 76.464C443.654 61.9573 447.579 51.2907 454.491 44.464C461.488 37.6373 471.942 34.224 485.851 34.224L517.979 34.096V50.096H486.235Z"
        fill="#EB4433" />
    <path d="M243 153H586V251C586 281.376 561.376 306 531 306H243V153Z" fill="#4F5B93" />
    <path
        d="M329.2 203.48H306.8V230.616H330.352C335.045 230.616 339.099 229.72 342.512 227.928C345.925 226.051 347.632 222.467 347.632 217.176C347.803 211.288 345.968 207.576 342.128 206.04C338.373 204.419 334.064 203.608 329.2 203.608V203.48ZM287.472 187.096H329.456C329.541 187.181 329.627 187.224 329.712 187.224C329.883 187.224 330.011 187.224 330.096 187.224C331.717 187.224 333.339 187.224 334.96 187.224C336.581 187.224 338.203 187.309 339.824 187.48C342.725 187.651 345.584 188.077 348.4 188.76C351.301 189.357 353.989 190.381 356.464 191.832C360.987 194.477 364.187 198.104 366.064 202.712C368.027 207.32 369.051 212.141 369.136 217.176C369.221 221.784 368.411 226.221 366.704 230.488C365.083 234.755 362.352 238.296 358.512 241.112C355.269 243.416 351.728 244.952 347.888 245.72C344.133 246.403 340.293 246.829 336.368 247C335.344 247 334.32 247 333.296 247C332.272 247 331.248 247 330.224 247L306.8 246.872V279H287.472V187.096ZM401.8 187.096V224.344H437.256V187.096H456.584V279H437.256V240.6H401.8V279H382.472V187.096H401.8ZM517.2 203.48H494.8V230.616H518.352C523.045 230.616 527.099 229.72 530.512 227.928C533.925 226.051 535.632 222.467 535.632 217.176C535.803 211.288 533.968 207.576 530.128 206.04C526.373 204.419 522.064 203.608 517.2 203.608V203.48ZM475.472 187.096H517.456C517.541 187.181 517.627 187.224 517.712 187.224C517.883 187.224 518.011 187.224 518.096 187.224C519.717 187.224 521.339 187.224 522.96 187.224C524.581 187.224 526.203 187.309 527.824 187.48C530.725 187.651 533.584 188.077 536.4 188.76C539.301 189.357 541.989 190.381 544.464 191.832C548.987 194.477 552.187 198.104 554.064 202.712C556.027 207.32 557.051 212.141 557.136 217.176C557.221 221.784 556.411 226.221 554.704 230.488C553.083 234.755 550.352 238.296 546.512 241.112C543.269 243.416 539.728 244.952 535.888 245.72C532.133 246.403 528.293 246.829 524.368 247C523.344 247 522.32 247 521.296 247C520.272 247 519.248 247 518.224 247L494.8 246.872V279H475.472V187.096Z"
        fill="white" />
</svg>